<svg width="3331" height="1271" xmlns="http://www.w3.org/2000/svg" xmlns:xlink="http://www.w3.org/1999/xlink" overflow="hidden"><defs><clipPath id="clip0"><rect x="-358" y="259" width="3331" height="1271"/></clipPath><clipPath id="clip1"><rect x="-192" y="321" width="707" height="707"/></clipPath><clipPath id="clip2"><rect x="-192" y="321" width="707" height="707"/></clipPath><clipPath id="clip3"><rect x="-192" y="321" width="707" height="707"/></clipPath></defs><g clip-path="url(#clip0)" transform="translate(358 -259)"><path d="M28.0405 747 28.0477 747 2470.94 747 2470.94 748.266 2496.96 747C2693.6 747 2853 900.566 2853 1090 2853 1279.43 2693.6 1433 2496.96 1433L2470.94 1431.73 2470.94 1433 15.0452 1433 15.0452 1432.37-8.36279 1431.23C-187.898 1413.66-328 1267.59-328 1090-328 912.406-187.898 766.336-8.36279 748.771L15.0452 747.632 15.0452 747 28.0333 747Z" stroke="#FF0000" stroke-width="59.5833" stroke-miterlimit="8" fill="#FFFFFF" fill-rule="evenodd"/><text font-family="Calibri,Calibri_MSFontService,sans-serif" font-weight="700" font-size="367" transform="matrix(1 0 0 1 261.082 1213)">033<tspan font-size="367" x="556.875" y="0">-</tspan><tspan font-size="367" x="669.167" y="0">66</tspan>-<tspan font-size="367" x="1152.71" y="0">77</tspan>-<tspan font-size="367" x="1636.25" y="0">99</tspan>-77</text><path d="M814.115 325 814.118 325 1967.6 325 1967.6 325.489 1979.89 325C2072.73 325 2148 384.322 2148 457.5 2148 530.677 2072.73 590 1979.89 590L1967.6 589.511 1967.6 590 807.978 590 807.978 589.755 796.926 589.316C712.153 582.53 646 526.104 646 457.5 646 388.896 712.153 332.469 796.926 325.684L807.978 325.244 807.978 325 814.111 325Z" stroke="#FF0000" stroke-width="59.5833" stroke-miterlimit="8" fill="#FF0000" fill-rule="evenodd"/><text fill="#FFFFFF" font-family="SF UI  Text,SF UI  Text_MSFontService,sans-serif" font-weight="700" font-size="220" transform="matrix(1 0 0 1 750.293 537)">Call us now!</text><path d="M-143 668.5C-143 495.359-2.64128 355 170.5 355 343.641 355 484 495.359 484 668.5 484 841.641 343.641 982 170.5 982-2.64128 982-143 841.641-143 668.5Z" fill="#FF0000" fill-rule="evenodd"/><g clip-path="url(#clip1)"><g clip-path="url(#clip2)"><g clip-path="url(#clip3)"><path d="M81.104 615.755C85.0635 611.647 87.2779 606.165 87.2816 600.458 87.3058 594.661 85.0003 589.096 80.8834 585.015L11.1659 515.224C7.05054 511.103 1.4724 508.776-4.35138 508.752-10.1494 508.796-15.6974 511.121-19.7951 515.224L-27.517 523.019 73.088 623.403Z" fill="#FFFFFF"/><path d="M182.224 794.314C178.008 798.6 171.117 798.655 166.832 794.439 166.79 794.398 166.748 794.356 166.707 794.314L41.6857 669.293C37.3843 664.987 37.3843 658.009 41.6857 653.703L57.2766 638.553-42.9608 538.389C-49.4324 544.861-55.757 551.185-59.8753 555.083-69.9616 564.509-75.9986 577.48-76.7164 591.266-77.6261 613.753-73.61 636.167-64.9497 656.938-56.6513 675.552-46.4746 693.269-34.577 709.815 6.79976 771.893 59.132 825.92 119.861 869.253 130 876.753 140.666 883.512 151.778 889.477 176.889 902.675 204.401 910.679 232.673 913.011 252.011 914.417 270.944 906.979 284.153 892.787L297.978 878.961 197.373 778.723Z" fill="#FFFFFF"/><path d="M321.071 824.834 251.353 754.896C242.757 746.39 228.915 746.39 220.318 754.896L212.964 762.839 313.275 863.591 321.071 856.236C329.576 847.64 329.576 833.798 321.071 825.202Z" fill="#FFFFFF"/><path d="M265.988 688.708 236.571 688.708C233.382 646.519 203.196 611.273 162 601.635L162 571.63C219.556 581.931 262.551 630.338 265.988 688.708Z" fill="#FFFFFF"/><path d="M336.294 674C336.294 678.927 336.294 683.855 335.632 688.708L306.215 688.708C306.72 683.822 306.966 678.913 306.951 674 306.829 594.008 241.992 529.204 162 529.123L162 499.706C258.226 499.787 336.213 577.774 336.294 674Z" fill="#FFFFFF"/><path d="M412.042 674C412.042 678.927 412.042 683.855 411.527 688.708L382.11 688.708C382.11 683.855 382.698 678.927 382.698 674 382.698 556.214 287.214 460.729 169.428 460.729 169.403 460.729 169.378 460.729 169.354 460.729 166.854 460.729 164.427 460.729 162 460.729L162 431.313 169.354 431.313C303.387 431.313 412.042 539.967 412.042 674Z" fill="#FFFFFF"/></g></g></g><path d="M117 0 75.408 0 41.5922 0 0 0C8.33437 0 37.9954 25.3009 37.9954 56.5002 37.9954 87.6996 8.33437 113 0 113L41.5922 113 75.408 113 117 113C108.666 113 81.8684 84.8275 81.8684 53.6281 81.8684 22.4287 108.666 0 117 0Z" fill="#FF0000" fill-rule="evenodd" transform="matrix(-1 0 0 1 1941 611)"/></g></svg>