<svg width="1272" height="1044" xmlns="http://www.w3.org/2000/svg" xmlns:xlink="http://www.w3.org/1999/xlink" overflow="hidden"><defs><clipPath id="clip0"><rect x="1536" y="36" width="1272" height="1044"/></clipPath><clipPath id="clip1"><rect x="1845" y="36" width="669" height="773"/></clipPath><clipPath id="clip2"><rect x="1845" y="36" width="669" height="773"/></clipPath><clipPath id="clip3"><rect x="1845" y="36" width="669" height="773"/></clipPath></defs><g clip-path="url(#clip0)" transform="translate(-1536 -36)"><g clip-path="url(#clip1)"><g clip-path="url(#clip2)"><g clip-path="url(#clip3)"><path d="M212.872 39.3968C241.912 29.1942 275.777 33.9574 299.932 53.3178 325.315 73.0776 337.116 106.267 334.903 137.827 330.14 127.256 326.79 116.07 320.921 106.021 307.553 83.2495 284.443 66.7778 258.753 61.0312 242.066 57.2513 226.055 50.4598 212.872 39.3968Z" fill="#815AA0" transform="matrix(1.00022 0 0 1 1846 36.8295)"/><path d="M201.501 46.0653C203.499 44.4366 205.527 42.8079 207.555 41.1792 216.621 47.817 225.871 54.4548 236.319 58.7264 251.193 65.0262 267.787 66.3783 282.016 74.3376 305.033 86.845 322.734 109.371 328.112 135.154 335.118 162.565 312.654 185.982 292.649 201.255 293.386 178.238 285.642 156.512 280.449 134.447 276.177 117.422 265.698 102.733 253.252 90.6863 237.241 74.3376 216.252 63.7355 201.501 46.0653Z" fill="#815AA0" transform="matrix(1.00022 0 0 1 1846 36.8295)"/><path d="M193.481 94.835C180.174 81.2827 182.786 57.3742 195.509 44.283 211.55 69.1748 241.113 80.115 259.121 103.255 269.539 115.056 275.163 129.96 279.588 144.834 269.508 132.081 257.616 120.219 242.342 113.888 226.67 105.96 208.108 104.822 193.481 94.835Z" fill="#815AA0" transform="matrix(1.00022 0 0 1 1846 36.8295)"/><path d="M150.734 144.219C143.635 113.765 153.654 81.0676 174.889 58.4498 166.683 77.2263 157.28 97.2627 160.568 118.313 167.083 151.871 196.216 175.349 203.038 208.877 177.255 196.461 156.204 172.768 150.734 144.219Z" fill="#815AA0" transform="matrix(1.00022 0 0 1 1846 36.8295)"/><path d="M167.421 124.183C161.613 101.934 170.002 79.3467 180.359 59.8327 179.652 74.3683 182.909 88.5352 188.349 101.934 185.491 102.149 179.744 102.61 176.886 102.825 180.635 103.962 184.384 105.068 188.133 106.144 186.628 115.67 181.434 123.814 176.978 132.142 183.401 139.548 189.486 147.354 192.774 156.727 194.556 157.987 196.369 159.247 198.182 160.507 200.641 167.052 199.504 178.914 208.723 179.867 230.573 181.28 249.042 167.052 267.142 156.819 260.965 162.166 254.665 167.329 248.366 172.492 256.202 185.122 260.013 199.657 259.183 214.562 241.943 218.034 224.273 216.221 207.494 211.335 205.373 177.777 176.333 155.282 167.421 124.183Z" fill="#815AA0" transform="matrix(1.00022 0 0 1 1846 36.8295)"/><path d="M343.17 92.8375C351.436 93.698 361.823 92.2536 367.416 99.967 380.446 115.056 389.788 133.709 393.077 153.469 397.072 178.73 386.869 204.175 371.227 223.658 347.38 253.621 315.113 275.071 283.306 295.66 239.177 323.932 190.715 346.581 152.732 383.458 114.41 418.952 85.708 466.769 80.9447 519.533 76.2736 571.284 94.0667 622.635 119.45 667.102 128.639 684.281 141.699 699.001 150.427 716.456 145.571 714.305 140.654 712.215 136.291 709.173 81.0984 667.84 41.1792 605.979 28.1493 538.095 21.0198 498.667 21.8803 457.119 34.8179 418.952 46.0653 385.455 65.8867 355.186 90.502 329.956 117.115 303.466 148.583 282.446 181.434 264.53 217.358 244.094 256.233 229.497 292.311 209.399 320.552 192.466 348.333 167.083 352.727 132.664 355.616 118.467 348.609 105.376 343.17 92.8375Z" fill="#815AA0" transform="matrix(1.00022 0 0 1 1846 36.8295)"/><path d="M415.51 170.187C430.814 192.036 444.059 219.202 437.175 246.46 429.062 272.243 408.319 291.45 387.422 307.399 354.909 331.062 321.413 353.557 290.958 379.924 261.365 405.707 237.886 439.326 227.93 477.647 229.128 452.387 225.102 426.358 233 401.866 242.127 372.702 260.719 346.858 284.597 327.927 313.822 302.82 349.162 286.38 379.002 262.164 395.719 248.273 411.423 230.88 415.725 208.907 417.477 196.062 415.633 183.094 415.51 170.187Z" fill="#AE7AB5" transform="matrix(1.00022 0 0 1 1846 36.8295)"/><path d="M480.505 233.215C546.822 267.204 599.771 325.008 630.625 392.616 653.12 443.291 658.283 501.679 644.577 555.427 635.296 584.836 620.146 611.971 604.35 638.308 587.571 664.705 569.655 691.349 544.825 710.894 537.327 717.193 528.077 720.789 518.581 722.909 527.892 708.404 539.263 695.252 547.375 680.009 568.979 640.182 582.132 595.285 581.794 549.772 582.316 483.118 554.843 417.538 509.884 368.738 489.448 344.983 463.358 327.282 437.083 310.688 447.224 301.345 457.795 292.003 464.433 279.711 473.038 265.513 476.633 249.134 480.505 233.215Z" fill="#815AA0" transform="matrix(1.00022 0 0 1 1846 36.8295)"/><path d="M142.652 502.14C154.514 472.116 176.271 443.967 207.217 432.135 198.152 444.581 188.041 456.597 182.356 471.102 166.56 510.499 165.301 554.966 175.134 595.992 184.138 632.469 206.787 667.994 242.527 682.929 219.817 636.156 217.266 580.073 236.627 531.734 250.64 496.67 279.066 465.693 316.25 455.552 339.974 448.177 366.218 454.323 386.531 467.844 410.286 484.224 428.14 508.501 438.589 535.237 455.614 579.858 454.016 631.209 434.747 674.846 419.782 705.915 394.367 735.355 359.426 743.253 323.717 750.352 285.888 750.167 251.162 738.398 202.792 722.233 162.719 683.789 143.605 636.648 125.719 594.148 125.013 544.856 142.652 502.14M304.91 554.106C287.301 559.084 274.517 574.265 268.095 590.859 256.509 622.051 265.206 661.755 293.294 681.238 310.319 692.824 334.412 688.184 347.872 673.279 374.884 644.024 374.945 592.089 344.553 565.076 334.35 554.966 318.923 550.203 304.91 554.106Z" fill="#815AA0" transform="matrix(1.00022 0 0 1 1846 36.8295)"/><path d="M499.22 514.985C511.543 512.588 522.576 522.299 527.677 532.717 535.544 550.725 530.32 576.631 510.591 584.498 495.318 590.153 479.092 577.369 475.711 562.587 469.811 544.21 478.631 519.042 499.22 514.985Z" fill="#815AA0" transform="matrix(1.00022 0 0 1 1846 36.8295)"/><path d="M486.713 619.47C500.019 614.491 514.494 623.711 519.38 636.187 527.493 653.274 522.422 676.69 505.582 686.493 498.575 688.399 490.892 688.368 483.855 686.616 458.625 673.31 460.008 630.195 486.713 619.47Z" fill="#815AA0" transform="matrix(1.00022 0 0 1 1846 36.8295)"/><path d="M191.172 200.932C150.715 173.855 138.081 124.236 160.541 80.637 165.325 71.3505 172.062 62.0193 170.031 67.4923 169.469 69.0074 167.174 75.2057 164.93 81.2662 161.952 89.3121 160.66 95.6528 160.141 104.764 159.03 124.269 162.198 132.851 183.703 168.592 194.405 186.38 201.97 202.731 200.895 205.754 200.629 206.503 196.253 204.333 191.172 200.932Z" fill="#AE7AB5" transform="matrix(1.00022 0 0 1 1846 36.8295)"/><path d="M226.581 214.687C225.066 214.382 220.36 213.46 216.123 212.639L208.42 211.146 206.865 202.784C204.936 192.409 198.533 178.766 187.339 161.176 182.608 153.743 176.216 142.405 173.134 135.982 168.322 125.954 167.446 122.703 166.936 112.99 166.246 99.8432 167.742 91.7261 173.703 76.2678 178.206 64.5926 180.375 63.8205 180.417 73.8789 180.429 76.634 181.877 83.8554 183.636 89.9265L186.833 100.965 181.226 101.938 175.618 102.91 181.523 104.961C188.831 107.499 189.008 106.535 176.642 131.567 176.448 131.96 178.85 135.679 181.98 139.831 185.11 143.984 188.678 149.551 189.909 152.202 191.139 154.854 193.47 158.097 195.088 159.409 196.706 160.722 198.463 164.109 198.994 166.937 201.349 179.492 205.483 182.131 219.223 179.851 227.194 178.529 247.308 170.853 248.698 168.603 249.124 167.916 250.15 167.353 250.982 167.353 251.811 167.353 251.419 168.537 250.11 169.983 247.872 172.456 247.87 172.88 250.048 177.094 254.121 184.969 257.5 196.323 258.408 205.174L259.288 213.773 254.814 214.668C250.085 215.613 231.241 215.627 226.582 214.687Z" fill="#AE7AB5" transform="matrix(1.00022 0 0 1 1846 36.8295)"/><path d="M266.991 130.057C255.785 118.986 244.952 113.164 221.072 105.382 199.791 98.4474 196.998 97.1115 192.429 91.6812 187.29 85.5744 185.511 78.7549 186.274 68.0892 186.761 61.2974 187.952 57.0243 190.636 52.444 192.667 48.9782 194.767 46.1668 195.304 46.1963 195.84 46.2261 198.227 48.9015 200.608 52.142 204.556 57.5136 210.983 63.0315 240.698 86.5608 252.777 96.1269 263.073 108.211 268.791 119.537 272.861 127.603 277.279 138.712 276.526 138.991 276.33 139.064 272.038 135.044 266.991 130.057Z" fill="#AE7AB5" transform="matrix(1.00022 0 0 1 1846 36.8295)"/><path d="M491.46 581.894C481.374 576.567 475.363 565.025 475.262 550.786 475.158 536.36 480.729 525.274 491.163 519.143 510.581 507.732 532.366 527.535 529.932 554.384 527.881 576.998 508.472 590.878 491.46 581.894Z" fill="#AE7AB5" transform="matrix(1.00022 0 0 1 1846 36.8295)"/><path d="M481.96 684.58C479.996 683.513 476.719 680.447 474.677 677.769 457.907 655.783 470.397 619.165 494.673 619.144 499.603 619.139 502.574 620.16 507.7 623.615 516.802 629.751 521.153 638.449 521.831 651.863 522.292 661.002 521.918 662.841 517.961 670.875 511.978 683.031 506.57 686.649 494.509 686.576 489.496 686.546 483.953 685.663 481.96 684.58Z" fill="#AE7AB5" transform="matrix(1.00022 0 0 1 1846 36.8295)"/></g></g></g><text fill="#815AA0" font-family="SF UI  Text Light,SF UI  Text Light_MSFontService,sans-serif" font-weight="300" font-size="110" transform="matrix(1 0 0 1 2437.96 959)">Salon<tspan font-size="110" x="-362.041" y="0">Beauty</tspan><tspan font-family="SF UI  Text Med,SF UI  Text Med_MSFontService,sans-serif" font-weight="700" font-size="147" x="-813.372" y="-3">Eiman</tspan></text></g></svg>