<?xml version="1.0" encoding="UTF-8" ?>
<!DOCTYPE svg PUBLIC "-//W3C//DTD SVG 1.1//EN" "http://www.w3.org/Graphics/SVG/1.1/DTD/svg11.dtd">
<svg width="1649pt" height="959pt" viewBox="0 0 1649 959" version="1.1" xmlns="http://www.w3.org/2000/svg">
<g id="#ffe5ffff">
<path fill="#ffe5ff" opacity="1.00" d=" M 1270.34 32.16 C 1287.94 27.88 1307.17 29.62 1323.45 37.67 C 1324.45 38.22 1325.49 38.75 1326.54 39.29 C 1341.09 47.20 1352.96 60.15 1359.27 75.51 C 1365.47 88.80 1367.36 103.71 1366.82 118.25 C 1363.97 111.62 1361.41 104.86 1358.59 98.21 C 1349.84 79.00 1333.15 63.87 1313.52 56.30 C 1304.71 52.71 1295.13 51.49 1286.37 47.76 C 1278.12 44.66 1270.59 39.98 1263.54 34.75 C 1265.18 32.98 1268.14 33.09 1270.34 32.16 Z" />
<path fill="#ffe5ff" opacity="1.00" d=" M 1253.26 39.92 C 1255.03 38.56 1256.81 37.20 1258.44 35.65 C 1266.90 41.86 1275.61 47.95 1285.50 51.70 C 1295.91 55.52 1307.00 57.31 1317.17 61.82 C 1340.48 72.40 1358.05 95.04 1361.82 120.44 C 1363.25 131.26 1358.93 141.99 1352.51 150.51 C 1346.46 158.83 1338.76 165.76 1330.72 172.11 C 1331.39 157.27 1327.50 142.78 1323.87 128.53 C 1321.72 120.62 1320.22 112.48 1316.97 104.92 C 1308.76 87.28 1294.06 73.71 1278.72 62.23 C 1269.88 55.21 1260.55 48.63 1253.26 39.92 Z" />
<path fill="#ffe5ff" opacity="1.00" d=" M 1243.28 45.45 C 1244.52 42.77 1246.29 40.39 1248.54 38.46 C 1258.83 54.72 1276.28 64.12 1290.48 76.46 C 1296.23 81.81 1301.80 87.40 1306.38 93.81 C 1312.69 103.13 1316.41 113.82 1320.10 124.36 C 1315.01 118.56 1310.30 112.27 1304.01 107.67 C 1294.43 99.53 1282.50 94.69 1270.50 91.36 C 1266.49 90.03 1262.46 88.79 1258.50 87.34 C 1257.49 86.98 1256.49 86.63 1255.50 86.29 C 1251.42 84.35 1246.75 82.65 1244.28 78.61 C 1237.80 70.01 1238.04 58.14 1241.62 48.40 C 1242.15 47.41 1242.70 46.42 1243.28 45.45 Z" />
<path fill="#ffe5ff" opacity="1.00" d=" M 1211.37 84.77 C 1215.17 72.12 1221.58 59.96 1230.98 50.58 C 1229.77 53.21 1228.12 55.66 1227.35 58.47 C 1223.13 67.89 1219.42 77.80 1218.56 88.17 C 1217.02 97.81 1219.39 107.72 1223.49 116.46 C 1232.60 137.79 1249.94 155.41 1254.53 178.67 C 1253.78 178.19 1252.29 177.23 1251.54 176.75 C 1236.74 169.13 1224.54 156.80 1216.66 142.18 C 1208.02 124.53 1205.89 103.71 1211.37 84.77 Z" />
<path fill="#ffe5ff" opacity="1.00" d=" M 1223.00 98.08 C 1221.61 81.77 1227.77 66.00 1235.33 51.89 C 1235.35 61.60 1236.51 71.38 1239.69 80.60 C 1240.47 82.90 1241.51 85.14 1241.82 87.58 C 1239.12 87.84 1236.42 87.92 1233.73 88.03 L 1233.72 88.76 C 1236.53 89.38 1239.26 90.30 1242.05 91.08 C 1240.67 99.16 1235.91 105.96 1232.65 113.34 C 1235.69 116.93 1238.59 120.67 1241.21 124.58 C 1243.93 128.84 1244.94 134.76 1250.02 136.97 C 1252.69 141.45 1251.47 147.63 1255.16 151.73 C 1259.11 154.86 1264.55 153.85 1269.16 153.18 C 1283.56 150.77 1295.45 141.82 1308.00 135.08 C 1303.30 139.48 1297.84 143.04 1293.41 147.72 C 1298.16 156.43 1301.68 165.98 1302.23 175.96 C 1302.28 178.34 1302.42 180.72 1302.64 183.10 C 1288.03 186.60 1272.76 184.32 1258.40 180.72 C 1257.76 168.88 1252.47 158.05 1246.72 147.93 C 1240.77 137.92 1233.87 128.44 1228.93 117.86 C 1225.57 111.79 1223.53 104.99 1223.00 98.08 Z" />
<path fill="#ffe5ff" opacity="1.00" d=" M 1373.99 79.69 C 1377.80 79.93 1381.61 80.40 1385.45 80.54 C 1387.83 81.37 1390.38 82.05 1392.39 83.68 C 1405.96 98.59 1415.63 117.73 1416.80 138.08 C 1417.27 149.57 1414.69 161.10 1409.78 171.48 C 1409.53 171.98 1409.01 172.99 1408.75 173.49 C 1408.49 174.00 1407.99 175.03 1407.73 175.55 C 1398.51 192.88 1384.18 206.79 1369.37 219.38 C 1337.65 245.07 1301.99 265.18 1267.01 285.99 C 1251.21 295.91 1235.49 306.15 1221.46 318.51 C 1206.59 331.41 1192.82 345.68 1181.68 361.96 C 1177.45 367.51 1174.35 373.81 1170.56 379.64 C 1169.41 381.48 1168.70 383.53 1167.79 385.48 C 1167.53 385.98 1166.99 386.99 1166.72 387.49 C 1166.24 388.47 1165.76 389.46 1165.30 390.45 C 1155.76 410.23 1150.74 432.13 1150.24 454.07 C 1149.65 494.76 1164.05 534.11 1183.90 569.08 C 1191.81 583.40 1202.34 596.09 1209.88 610.63 C 1205.84 608.61 1201.64 606.87 1197.89 604.36 C 1165.73 580.11 1139.64 547.83 1122.80 511.22 C 1104.03 470.29 1097.32 423.52 1105.86 379.16 C 1107.58 370.81 1109.83 362.56 1112.64 354.51 C 1114.39 349.39 1116.62 344.46 1118.69 339.48 C 1126.70 322.13 1137.50 306.14 1149.75 291.52 C 1163.46 276.27 1178.94 262.62 1195.81 250.95 C 1205.20 244.85 1214.24 238.19 1224.15 232.92 C 1257.80 212.40 1294.81 198.33 1329.40 179.57 C 1349.20 167.87 1367.87 152.09 1377.29 130.63 C 1381.04 120.81 1384.00 109.93 1381.39 99.44 C 1379.75 92.56 1376.33 86.32 1373.99 79.69 Z" />
<path fill="#ffe5ff" opacity="1.00" d=" M 1435.12 145.76 C 1446.17 160.58 1454.64 178.25 1455.28 197.00 C 1455.83 207.75 1451.43 217.89 1446.07 226.94 C 1435.16 244.17 1418.87 257.00 1402.52 268.77 C 1385.31 281.17 1367.98 293.41 1351.17 306.36 C 1337.08 317.75 1322.53 328.84 1310.81 342.77 C 1303.89 350.76 1297.53 359.28 1292.33 368.50 C 1291.18 370.06 1290.16 371.72 1289.30 373.44 C 1288.76 374.44 1288.27 375.45 1287.75 376.45 C 1287.51 376.96 1287.03 377.98 1286.79 378.49 C 1286.52 378.99 1285.98 379.98 1285.70 380.48 C 1283.81 384.42 1282.38 388.56 1280.58 392.54 C 1278.48 397.25 1277.71 402.41 1275.69 407.14 C 1276.95 387.62 1273.88 367.75 1278.60 348.53 C 1280.21 342.00 1282.43 335.60 1285.25 329.50 C 1293.35 310.84 1306.41 294.57 1321.94 281.54 C 1343.03 263.41 1367.56 250.06 1390.35 234.28 C 1404.36 224.27 1418.26 213.22 1427.42 198.39 C 1431.75 190.89 1435.51 182.70 1435.82 173.91 C 1436.30 164.53 1435.77 155.12 1435.12 145.76 Z" />
<path fill="#ffe5ff" opacity="1.00" d=" M 1490.77 199.22 C 1494.49 201.69 1498.62 203.46 1502.52 205.64 C 1503.80 206.59 1505.17 207.42 1506.50 208.35 C 1521.35 217.10 1535.17 227.56 1548.03 239.01 C 1556.02 247.34 1564.81 254.88 1572.31 263.67 C 1582.59 275.69 1592.14 288.35 1600.40 301.84 C 1611.62 319.86 1621.25 339.07 1627.11 359.54 C 1633.52 380.10 1636.35 401.68 1636.43 423.18 C 1635.82 442.85 1633.98 462.82 1627.38 481.50 C 1626.33 484.15 1625.17 486.76 1624.39 489.51 C 1622.88 492.87 1621.10 496.09 1619.75 499.51 C 1606.83 527.64 1590.51 554.17 1571.78 578.81 C 1566.65 585.30 1561.06 591.40 1555.08 597.13 C 1549.36 602.42 1543.63 608.01 1536.46 611.30 C 1532.25 613.54 1527.67 614.92 1523.07 616.06 C 1527.98 607.82 1534.19 600.48 1539.38 592.43 C 1545.87 583.07 1551.23 572.93 1555.68 562.47 C 1575.26 520.52 1581.60 472.39 1572.73 426.88 C 1564.82 386.76 1546.04 348.77 1518.64 318.39 C 1506.91 304.03 1492.83 291.71 1477.56 281.24 C 1470.01 275.36 1461.57 270.80 1453.89 265.11 C 1459.59 259.42 1465.68 254.08 1470.79 247.82 C 1474.46 243.06 1477.36 237.79 1480.28 232.55 C 1480.99 230.51 1481.97 228.57 1482.66 226.53 C 1486.30 217.71 1488.09 208.32 1490.77 199.22 Z" />
<path fill="#ffe5ff" opacity="1.00" d=" M 1247.05 374.01 C 1250.96 371.93 1254.99 370.08 1258.91 368.01 C 1252.56 375.45 1247.14 383.67 1241.83 391.87 C 1231.45 411.53 1226.96 433.88 1225.77 455.94 C 1224.98 488.34 1230.52 522.39 1249.44 549.43 C 1257.50 561.22 1268.24 571.05 1280.49 578.37 C 1282.88 579.69 1285.42 580.73 1287.80 582.12 C 1285.94 575.87 1282.54 570.19 1280.78 563.88 C 1267.76 525.24 1269.26 481.34 1287.21 444.51 C 1295.93 426.87 1308.96 411.22 1325.37 400.22 C 1339.52 391.28 1356.09 384.87 1373.07 386.02 C 1383.37 386.58 1393.37 389.70 1402.57 394.26 C 1426.24 407.07 1443.69 429.46 1453.98 454.01 C 1467.92 489.34 1468.39 529.81 1455.35 565.49 C 1449.35 583.09 1438.59 598.87 1425.57 612.02 C 1418.64 618.41 1411.09 624.29 1402.49 628.26 C 1391.94 633.24 1380.29 634.96 1368.82 636.24 C 1346.99 638.44 1324.64 637.52 1303.43 631.62 C 1298.06 630.02 1292.76 628.25 1287.48 626.39 C 1284.80 625.14 1282.14 623.89 1279.45 622.70 C 1278.41 622.23 1277.41 621.73 1276.40 621.28 C 1243.26 604.17 1216.40 574.79 1203.11 539.85 C 1186.23 497.98 1189.59 448.43 1212.51 409.48 C 1221.00 395.16 1232.50 382.34 1247.05 374.01 M 1327.51 479.48 C 1320.90 484.38 1316.03 491.20 1312.26 498.44 C 1306.61 509.98 1304.80 523.19 1306.19 535.91 C 1308.13 553.71 1317.20 571.25 1332.41 581.17 C 1346.91 590.27 1367.31 586.00 1378.22 573.20 C 1398.45 550.58 1400.42 513.38 1381.86 489.18 C 1376.11 482.76 1370.04 475.95 1361.53 473.29 C 1350.05 468.94 1336.93 471.95 1327.51 479.48 Z" />
<path fill="#ffe5ff" opacity="1.00" d=" M 316.88 408.88 C 340.29 391.40 370.20 385.75 398.85 385.31 C 428.59 385.38 457.90 391.58 486.72 398.41 C 488.70 398.98 490.43 397.69 492.16 396.97 C 509.99 389.06 529.75 386.70 549.10 386.81 C 564.75 387.17 580.57 389.66 594.91 396.17 C 598.32 397.64 601.09 400.14 604.03 402.35 C 607.15 406.04 609.45 411.04 608.02 415.93 C 607.18 421.23 602.53 425.02 597.56 426.33 C 588.54 429.05 578.97 428.48 569.77 427.13 C 546.31 423.67 523.33 417.67 500.28 412.19 C 496.16 415.12 491.87 417.81 488.02 421.11 C 478.29 429.65 472.14 442.64 473.55 455.73 C 473.80 458.81 474.93 461.75 476.64 464.31 C 477.68 464.96 478.70 465.64 479.73 466.33 C 491.62 465.28 504.01 463.88 515.59 467.63 C 518.54 469.23 520.89 472.08 519.64 475.61 C 517.02 478.75 512.91 479.29 509.10 479.69 C 498.59 480.11 488.20 478.16 477.94 476.20 C 458.03 479.92 439.43 488.34 421.63 497.76 C 408.10 505.65 395.08 514.93 385.22 527.25 C 374.23 540.70 368.14 558.36 369.64 575.77 C 369.96 590.27 379.61 604.09 393.47 608.69 C 395.04 609.24 396.62 609.77 398.22 610.26 C 392.15 602.93 391.47 592.93 392.28 583.84 C 393.41 563.70 404.20 545.30 418.27 531.33 C 432.59 516.77 450.00 505.05 469.11 497.78 C 485.74 491.96 503.69 489.15 521.24 491.36 C 536.28 493.37 551.41 502.94 555.79 518.14 C 558.84 530.16 557.01 543.11 552.34 554.48 C 547.89 565.45 540.63 575.08 532.06 583.16 C 501.20 612.98 456.83 628.36 414.14 623.37 C 421.96 630.64 431.81 635.47 442.30 637.39 C 457.12 640.15 472.64 639.83 487.25 636.01 C 490.90 634.97 494.27 632.60 498.20 632.72 C 500.09 632.70 501.26 634.31 502.59 635.39 C 502.77 636.53 502.95 637.68 503.13 638.84 C 500.56 642.76 495.84 644.05 491.60 645.28 C 471.29 650.33 449.20 651.26 429.48 643.38 C 418.34 638.98 409.50 630.59 401.86 621.62 C 391.99 619.24 382.13 616.07 373.49 610.65 C 368.76 608.61 365.02 605.12 361.02 602.00 C 352.62 594.71 345.88 585.09 343.74 574.04 C 341.24 561.39 343.51 548.13 348.74 536.46 C 349.25 535.49 349.73 534.49 350.25 533.53 C 363.09 509.09 386.79 492.08 412.00 482.03 C 430.99 474.84 450.96 469.96 471.27 468.71 C 463.62 467.35 456.44 462.67 453.28 455.43 C 449.77 445.32 450.98 433.57 456.65 424.47 C 462.05 415.75 471.11 410.25 480.10 405.82 C 456.96 401.64 433.56 397.54 409.96 398.37 C 383.31 398.90 356.41 405.51 333.69 419.69 C 316.46 430.51 300.65 445.64 294.32 465.47 C 290.89 476.90 289.91 489.60 294.00 500.99 C 297.77 511.02 305.97 520.07 316.81 522.20 C 312.99 516.97 313.08 509.24 317.22 504.23 C 322.63 497.41 332.82 495.81 340.60 499.15 C 344.90 501.41 347.16 506.20 347.02 510.95 C 347.59 517.56 344.10 524.23 338.56 527.81 C 327.46 535.94 311.67 534.40 300.42 527.35 C 292.26 521.33 285.77 513.03 281.97 503.62 C 276.52 490.32 276.13 475.33 279.39 461.44 C 284.45 439.86 299.37 421.86 316.88 408.88 M 508.09 405.25 C 515.78 407.71 523.67 409.47 531.51 411.35 C 550.49 415.39 569.88 418.60 589.33 417.63 C 592.87 417.43 598.23 415.46 597.10 411.01 C 594.03 406.99 589.04 405.17 584.52 403.31 C 571.62 398.58 557.65 397.75 544.03 398.49 C 531.79 398.92 519.67 401.25 508.09 405.25 M 503.50 502.83 C 486.84 505.02 470.93 511.65 457.19 521.22 C 439.86 533.13 423.97 547.90 413.70 566.46 C 413.24 567.45 412.79 568.44 412.32 569.42 C 407.93 578.33 405.67 588.30 406.04 598.24 C 406.32 603.27 408.29 607.90 410.27 612.45 C 442.49 617.85 475.68 607.56 502.19 589.27 C 513.11 581.73 523.78 573.49 532.25 563.20 C 540.91 552.92 547.38 539.92 546.64 526.18 C 545.99 517.22 539.56 509.57 531.59 505.92 C 522.99 501.37 512.87 501.93 503.50 502.83 Z" />
<path fill="#ffe5ff" opacity="1.00" d=" M 1488.62 453.49 C 1492.68 445.48 1500.74 438.81 1510.06 438.79 C 1519.53 439.22 1527.34 446.55 1530.90 454.95 C 1534.99 465.40 1534.47 477.83 1528.52 487.48 C 1524.02 495.08 1515.12 500.58 1506.11 499.11 C 1496.19 496.86 1488.13 488.34 1486.21 478.39 C 1483.92 470.12 1485.07 461.23 1488.62 453.49 Z" />
<path fill="#ffe5ff" opacity="1.00" d=" M 604.60 476.60 C 610.11 471.59 619.26 469.97 625.38 474.79 C 628.55 478.73 628.64 484.28 627.13 488.92 C 623.79 498.60 613.23 505.87 602.89 503.41 C 599.72 502.02 596.81 499.57 596.37 495.94 C 594.55 488.46 598.77 481.02 604.60 476.60 Z" />
<path fill="#ffe5ff" opacity="1.00" d=" M 660.44 514.27 C 667.10 510.21 675.77 514.20 679.49 520.41 C 684.64 527.68 684.47 537.24 681.63 545.36 C 689.22 534.59 696.56 523.03 707.79 515.66 C 713.29 511.85 720.54 511.84 726.51 514.58 C 737.37 520.98 741.12 536.13 736.28 547.44 C 738.17 545.97 739.33 543.82 740.72 541.92 C 744.88 535.49 750.01 529.81 755.12 524.15 C 761.33 518.72 768.14 512.38 776.98 512.63 C 786.28 512.78 793.91 520.25 796.57 528.77 C 800.29 539.36 797.03 550.83 792.25 560.51 C 784.80 575.19 772.26 586.92 766.42 602.48 C 765.58 605.10 763.97 609.16 767.08 610.89 C 771.34 612.08 775.46 609.36 778.81 606.99 C 787.80 600.79 795.02 592.51 802.28 584.45 C 805.59 579.74 810.54 576.02 812.27 570.34 C 814.48 564.34 818.28 559.16 822.12 554.12 C 832.75 541.78 846.51 532.60 860.79 524.99 C 870.71 519.23 881.23 513.46 892.92 512.76 C 898.05 512.20 904.21 513.08 907.49 517.51 C 909.31 519.65 909.78 522.70 909.40 525.43 C 910.69 521.72 911.38 517.84 912.04 513.98 C 921.24 516.07 930.63 514.96 939.87 513.92 C 931.60 527.33 923.91 541.09 915.67 554.51 C 909.15 566.06 901.81 577.18 896.75 589.51 C 895.97 591.51 895.01 593.44 894.32 595.48 C 892.65 600.42 890.00 606.11 892.93 611.11 C 894.96 611.30 897.16 611.28 898.87 609.97 C 909.26 603.23 917.32 593.61 925.50 584.46 C 931.76 576.69 938.14 568.96 943.62 560.59 C 946.16 557.13 948.40 552.85 952.99 551.97 C 961.84 540.04 970.33 527.57 981.55 517.69 C 985.81 513.82 991.84 510.99 997.53 513.61 C 1007.89 518.33 1012.25 531.68 1008.96 542.19 C 1015.00 532.54 1022.31 523.23 1032.13 517.20 C 1038.70 512.86 1047.46 511.03 1054.89 514.23 C 1064.69 519.09 1069.95 530.72 1068.59 541.37 C 1068.13 546.33 1066.20 550.95 1064.28 555.49 C 1063.91 556.18 1063.57 556.88 1063.25 557.59 C 1062.74 558.55 1062.23 559.51 1061.74 560.48 C 1057.05 569.54 1051.37 578.04 1045.67 586.49 C 1041.78 593.19 1037.48 599.86 1035.40 607.40 C 1035.97 608.84 1035.87 611.17 1037.98 611.16 C 1044.41 611.65 1049.17 606.51 1053.82 602.86 C 1068.52 588.60 1080.25 571.69 1091.92 554.95 C 1093.77 551.53 1099.14 551.89 1100.93 555.20 C 1100.77 559.84 1097.84 563.72 1095.37 567.43 C 1085.70 580.29 1075.77 593.01 1064.63 604.62 C 1058.92 610.42 1052.74 616.00 1045.23 619.37 C 1037.37 622.98 1027.41 620.63 1021.82 614.08 C 1011.80 603.36 1013.68 585.88 1021.39 574.39 C 1027.82 563.67 1035.73 553.92 1041.95 543.07 C 1044.89 537.89 1048.49 532.92 1049.88 527.03 C 1050.28 525.49 1049.87 523.28 1048.15 522.79 C 1045.28 521.84 1042.21 522.92 1039.50 523.88 C 1031.26 527.71 1025.27 534.71 1019.00 541.03 C 1006.84 555.57 996.02 571.23 986.34 587.51 C 979.63 597.86 973.57 608.64 967.61 619.41 C 958.22 618.88 948.80 618.43 939.43 619.57 C 946.92 605.73 955.08 592.26 962.75 578.51 C 967.70 569.69 973.16 561.16 978.34 552.49 C 983.19 542.78 990.54 533.54 991.10 522.34 C 985.73 522.74 982.68 527.71 979.01 530.97 C 971.33 539.68 964.45 549.07 957.82 558.60 C 956.24 561.07 953.76 562.83 952.36 565.44 C 946.12 574.70 938.83 583.20 931.76 591.82 C 925.58 598.93 919.62 606.38 912.09 612.16 C 906.61 616.57 900.38 621.26 892.98 621.00 C 885.63 621.23 878.67 616.82 874.96 610.61 C 870.80 603.84 870.79 595.56 871.74 587.92 L 871.51 588.06 C 870.34 591.71 868.05 594.82 866.12 598.09 C 861.06 606.09 854.78 613.75 846.15 618.04 C 837.86 622.68 826.61 622.00 819.49 615.51 C 812.08 608.70 808.38 598.58 808.63 588.62 C 801.67 596.27 795.43 604.75 787.22 611.21 C 782.20 615.20 776.98 619.56 770.49 620.76 C 765.70 621.58 760.77 620.52 756.44 618.43 C 745.01 611.16 742.38 595.62 746.61 583.48 C 749.01 576.07 753.12 569.40 757.63 563.11 C 763.44 555.07 768.81 546.74 774.36 538.52 C 776.28 534.87 778.49 531.30 779.47 527.26 C 779.98 525.38 778.81 523.84 777.85 522.40 C 769.02 522.05 762.28 528.71 756.38 534.39 C 737.51 553.72 723.34 576.96 708.66 599.49 C 706.04 604.25 702.92 608.72 700.32 613.50 C 699.04 615.22 698.02 617.13 697.21 619.12 C 692.48 619.86 687.71 618.61 682.96 618.77 C 678.07 619.02 673.17 619.07 668.31 619.67 C 670.24 617.47 671.65 614.89 673.33 612.51 C 680.18 601.18 687.69 590.25 694.67 578.99 C 699.19 572.95 702.18 566.00 705.75 559.40 C 706.24 558.44 706.74 557.50 707.25 556.56 C 707.87 555.20 708.53 553.88 709.22 552.56 C 710.67 548.36 713.32 544.71 714.70 540.49 C 716.73 535.33 719.82 529.81 718.64 524.14 C 716.12 520.42 711.30 524.03 708.57 525.81 C 693.51 538.94 681.78 555.33 670.42 571.64 C 664.20 580.74 658.46 590.14 652.65 599.50 C 649.18 606.26 644.79 612.52 641.63 619.43 C 632.04 618.64 622.40 618.60 612.82 619.58 C 616.47 613.92 620.29 608.34 623.66 602.49 C 637.27 582.03 649.83 560.80 660.23 538.52 C 662.36 533.28 665.35 528.09 665.08 522.23 C 658.49 524.13 654.29 530.07 649.95 534.98 C 642.04 543.53 636.15 553.78 628.28 562.34 C 619.50 573.81 611.47 585.93 601.64 596.55 C 593.89 605.90 584.69 614.42 573.63 619.67 C 567.26 621.88 559.83 621.56 554.11 617.81 C 545.44 612.69 541.27 601.84 543.12 592.11 C 545.06 582.22 549.90 573.25 554.75 564.52 C 558.93 557.50 563.02 550.42 567.34 543.49 C 568.45 541.50 569.55 539.49 570.67 537.50 C 575.54 529.72 580.01 521.70 584.91 513.94 C 594.14 516.12 603.56 514.82 612.86 513.97 C 607.90 522.02 603.52 530.41 598.65 538.52 C 596.08 543.23 593.45 547.92 590.66 552.50 C 588.09 557.22 585.45 561.91 582.66 566.50 C 579.07 573.26 575.09 579.80 571.39 586.50 C 567.59 592.87 563.73 599.63 563.25 607.20 C 563.63 608.26 564.05 609.31 564.51 610.36 C 568.79 612.35 573.44 610.32 576.88 607.61 C 582.70 603.22 588.23 598.35 592.71 592.56 C 603.37 580.84 612.58 567.89 621.80 555.03 C 627.12 550.64 631.73 545.41 636.66 540.56 C 643.93 531.30 649.96 520.35 660.44 514.27 M 877.09 530.92 C 870.76 536.00 864.86 541.67 859.80 548.03 C 850.97 557.63 843.31 568.29 836.64 579.49 C 835.53 581.40 834.66 583.43 833.76 585.44 C 832.91 587.44 831.99 589.41 831.30 591.47 C 829.58 597.68 826.87 606.33 832.96 611.00 C 834.89 611.08 836.95 611.53 838.79 610.61 C 844.90 607.83 849.57 602.81 854.12 598.01 C 862.05 589.93 868.80 580.80 875.66 571.80 C 881.94 562.92 888.55 554.18 893.64 544.53 C 895.16 542.32 896.31 539.90 897.39 537.45 C 898.87 533.49 900.27 529.41 899.83 525.11 C 898.77 523.96 897.79 522.14 895.94 522.48 C 888.72 522.45 882.61 526.76 877.09 530.92 Z" />
<path fill="#ffe5ff" opacity="1.00" d=" M 1496.42 527.91 C 1503.76 525.44 1512.21 527.96 1517.52 533.47 C 1531.81 547.50 1529.21 574.88 1511.66 585.14 C 1504.00 586.56 1494.40 587.78 1488.47 581.60 C 1477.07 571.74 1475.07 553.48 1482.18 540.60 C 1484.99 534.70 1490.33 530.17 1496.42 527.91 Z" />
<path fill="#ffe5ff" opacity="1.00" d=" M 1128.76 635.00 C 1131.16 634.99 1133.57 634.99 1135.99 635.00 C 1135.99 662.00 1135.99 689.00 1135.99 716.00 C 1133.57 715.99 1131.16 715.99 1128.76 716.00 C 1128.76 689.00 1128.76 662.00 1128.76 635.00 Z" />
<path fill="#ffe5ff" opacity="1.00" d=" M 1005.00 643.91 C 1010.84 638.45 1019.21 636.58 1027.02 636.99 C 1034.72 637.29 1042.65 640.42 1047.52 646.60 C 1050.04 649.72 1051.16 653.66 1052.06 657.51 C 1049.48 657.46 1046.93 657.45 1044.36 657.51 C 1043.46 650.37 1036.96 645.10 1030.09 644.10 C 1022.96 642.80 1014.64 643.98 1009.50 649.51 C 1004.89 654.37 1005.03 663.35 1010.99 667.08 C 1019.47 672.47 1029.99 672.58 1039.08 676.52 C 1043.30 678.38 1047.62 680.75 1050.20 684.74 C 1054.13 690.87 1053.62 699.11 1050.31 705.40 C 1046.34 712.75 1037.94 716.41 1029.96 717.25 C 1020.38 718.35 1009.67 716.43 1002.63 709.38 C 998.93 705.77 997.00 700.81 996.29 695.77 C 998.78 695.80 1001.29 695.81 1003.80 695.80 C 1004.61 701.54 1008.79 706.35 1014.06 708.56 C 1020.89 711.41 1028.90 711.68 1035.79 708.87 C 1039.53 707.28 1042.96 704.51 1044.49 700.65 C 1046.45 695.96 1045.40 689.92 1041.28 686.72 C 1035.37 681.73 1027.40 680.79 1020.21 678.80 C 1013.30 677.04 1005.73 674.69 1001.50 668.51 C 996.58 660.92 998.25 649.88 1005.00 643.91 Z" />
<path fill="#ffe5ff" opacity="1.00" d=" M 614.55 638.39 C 623.66 638.51 632.78 638.49 641.90 638.51 C 648.21 638.57 654.93 639.81 659.84 644.06 C 665.97 649.61 667.23 659.66 663.04 666.71 C 660.42 671.17 655.69 673.74 650.83 675.04 C 655.30 676.13 660.05 677.18 663.49 680.48 C 672.64 688.52 671.15 705.48 660.59 711.67 C 654.81 715.41 647.71 715.93 641.01 716.05 C 632.20 716.05 623.39 716.06 614.58 716.04 C 614.56 690.16 614.61 664.27 614.55 638.39 M 622.00 645.00 C 622.00 654.21 621.99 663.43 622.00 672.64 C 631.67 672.13 642.01 674.33 651.14 670.28 C 659.24 666.84 660.43 654.62 654.01 649.04 C 650.68 646.27 646.30 645.06 642.03 645.04 C 635.35 644.94 628.68 645.04 622.00 645.00 M 622.00 679.01 C 622.01 689.17 621.97 699.32 622.02 709.48 C 629.23 709.47 636.43 709.65 643.64 709.46 C 648.62 709.23 653.98 708.27 657.76 704.75 C 664.69 698.33 662.96 684.81 653.80 681.32 C 643.68 677.41 632.57 679.59 622.00 679.01 Z" />
<path fill="#ffe5ff" opacity="1.00" d=" M 876.24 643.18 C 878.68 643.22 881.13 643.22 883.59 643.19 C 883.46 648.14 883.54 653.09 883.52 658.05 C 888.09 658.03 892.66 658.04 897.24 658.04 C 897.22 660.07 897.22 662.10 897.22 664.15 C 892.65 664.16 888.08 664.15 883.52 664.16 C 883.45 675.43 883.45 686.69 883.44 697.96 C 883.45 701.39 883.23 705.45 885.94 708.04 C 888.92 710.77 893.30 709.95 897.00 709.98 C 896.99 711.98 896.99 713.99 897.00 716.01 C 891.90 716.41 886.37 716.69 881.72 714.20 C 877.54 711.75 876.35 706.50 876.41 702.00 C 876.34 689.38 876.24 676.76 876.32 664.15 C 873.21 664.16 870.10 664.15 867.00 664.16 C 866.99 662.11 866.99 660.07 867.00 658.04 C 870.09 658.03 873.19 658.03 876.29 658.05 C 876.27 653.09 876.33 648.13 876.24 643.18 Z" />
<path fill="#ffe5ff" opacity="1.00" d=" M 688.63 665.86 C 697.78 654.23 718.11 654.29 726.97 666.22 C 731.85 672.72 732.53 681.14 732.76 688.99 C 718.21 689.02 703.66 688.98 689.11 689.01 C 689.38 696.60 692.28 705.02 699.47 708.67 C 707.89 712.71 720.30 710.82 724.61 701.71 C 727.03 701.67 729.45 701.65 731.89 701.61 C 729.64 707.95 724.63 713.16 718.21 715.30 C 709.65 718.08 699.52 717.44 692.15 711.93 C 685.59 706.71 682.52 698.19 682.09 690.02 C 681.52 681.58 683.19 672.57 688.63 665.86 M 694.83 668.88 C 691.10 672.57 689.71 677.91 689.32 682.99 C 701.27 683.00 713.22 683.00 725.18 683.00 C 725.12 677.21 723.28 671.09 718.67 667.31 C 711.99 661.58 700.70 662.29 694.83 668.88 Z" />
<path fill="#ffe5ff" opacity="1.00" d=" M 759.91 658.58 C 766.81 656.56 774.58 656.67 781.17 659.70 C 787.24 662.51 790.44 669.26 790.42 675.74 C 790.59 689.16 790.53 702.60 790.55 716.03 C 788.24 716.03 785.93 716.03 783.63 716.04 C 783.63 712.57 783.66 709.11 783.60 705.65 C 781.02 709.28 778.15 713.03 773.91 714.80 C 766.28 718.21 756.42 717.73 749.90 712.19 C 743.01 706.45 742.52 694.37 749.46 688.50 C 753.76 684.91 759.43 683.58 764.90 683.18 C 771.05 682.72 777.19 682.16 783.35 681.94 C 783.38 677.27 783.99 671.98 780.84 668.10 C 777.96 664.15 772.62 663.45 768.08 663.52 C 762.20 663.46 755.56 666.39 753.79 672.45 C 751.41 672.48 749.04 672.50 746.67 672.48 C 747.74 665.66 753.45 660.41 759.91 658.58 M 764.99 689.07 C 760.69 689.55 755.85 690.61 753.27 694.43 C 750.04 699.22 752.10 706.37 757.23 708.92 C 765.36 712.92 776.41 710.11 781.24 702.33 C 783.94 698.00 783.28 692.72 783.30 687.88 C 777.18 688.09 771.07 688.49 764.99 689.07 Z" />
<path fill="#ffe5ff" opacity="1.00" d=" M 1074.35 661.32 C 1081.83 656.53 1091.64 656.16 1099.91 659.01 C 1106.47 661.33 1110.55 668.10 1110.62 674.91 C 1110.90 688.61 1110.77 702.33 1110.85 716.04 C 1108.54 716.03 1106.23 716.03 1103.94 716.04 C 1103.92 712.56 1103.95 709.08 1103.96 705.61 C 1101.34 709.11 1098.67 712.87 1094.50 714.65 C 1086.72 718.29 1076.58 717.76 1069.94 712.03 C 1062.86 705.90 1062.89 692.93 1070.88 687.59 C 1076.49 683.62 1083.57 683.21 1090.19 682.79 C 1094.67 682.47 1099.15 682.07 1103.65 681.92 C 1103.62 677.22 1104.25 671.85 1101.03 667.97 C 1097.74 663.84 1091.97 663.29 1087.07 663.57 C 1081.57 663.80 1075.76 666.88 1074.10 672.44 C 1071.66 672.48 1069.23 672.50 1066.81 672.49 C 1067.89 668.02 1070.34 663.75 1074.35 661.32 M 1085.99 688.98 C 1081.86 689.45 1077.26 690.15 1074.33 693.39 C 1070.39 697.70 1071.59 705.41 1076.61 708.39 C 1084.91 713.29 1097.05 710.26 1101.79 701.78 C 1104.21 697.53 1103.49 692.49 1103.62 687.83 C 1097.74 688.11 1091.85 688.46 1085.99 688.98 Z" />
<path fill="#ffe5ff" opacity="1.00" d=" M 1172.53 657.76 C 1179.74 656.48 1187.57 657.70 1193.62 661.99 C 1200.16 666.86 1203.49 675.04 1204.07 683.00 C 1204.82 691.66 1203.41 701.00 1197.89 707.98 C 1187.63 720.92 1164.09 719.69 1156.00 704.97 C 1150.80 695.32 1150.54 683.33 1154.16 673.10 C 1156.91 665.10 1164.17 659.06 1172.53 657.76 M 1173.17 664.15 C 1165.89 665.65 1160.83 672.44 1159.73 679.54 C 1158.37 687.51 1158.65 696.49 1163.38 703.38 C 1169.61 712.46 1184.62 713.00 1191.61 704.56 C 1195.79 699.79 1196.85 693.15 1196.94 687.01 C 1196.82 680.65 1195.70 673.73 1191.13 668.96 C 1186.70 664.07 1179.42 662.66 1173.17 664.15 Z" />
<path fill="#ffe5ff" opacity="1.00" d=" M 1239.84 657.92 C 1247.09 656.39 1255.89 657.12 1261.16 662.94 C 1265.57 667.40 1266.47 674.03 1266.47 680.03 C 1266.52 692.02 1266.55 704.02 1266.54 716.02 C 1264.12 716.03 1261.71 716.03 1259.30 716.05 C 1259.34 703.70 1259.50 691.36 1259.37 679.01 C 1259.33 673.63 1257.27 667.34 1251.93 665.08 C 1244.63 661.97 1234.98 663.54 1229.99 670.01 C 1227.43 673.44 1226.36 677.80 1226.42 682.04 C 1226.45 693.37 1226.49 704.70 1226.47 716.03 C 1224.05 716.03 1221.64 716.03 1219.24 716.05 C 1219.22 696.71 1219.27 677.38 1219.21 658.04 C 1221.48 658.05 1223.76 658.05 1226.05 658.06 C 1226.04 661.76 1226.00 665.46 1226.10 669.16 C 1229.03 663.82 1233.73 659.25 1239.84 657.92 Z" />
<path fill="#ffe5ff" opacity="1.00" d=" M 807.42 658.01 C 809.83 658.00 812.25 658.01 814.67 658.01 C 814.63 670.32 814.46 682.64 814.63 694.96 C 814.67 700.42 816.82 706.48 822.12 708.91 C 829.58 712.14 839.65 710.50 844.50 703.55 C 847.62 699.04 847.74 693.27 847.65 687.99 C 847.56 678.00 847.61 668.00 847.60 658.01 C 849.97 658.00 852.35 658.01 854.74 658.01 C 854.72 677.34 854.73 696.67 854.73 716.00 C 852.46 715.99 850.18 715.99 847.92 716.00 C 847.91 712.29 847.95 708.58 847.90 704.88 C 845.87 708.39 843.71 712.05 839.97 713.98 C 830.53 719.21 816.20 717.91 810.44 707.88 C 808.16 703.97 807.57 699.37 807.52 694.92 C 807.44 682.62 807.43 670.32 807.42 658.01 Z" />
<path fill="#ffe5ff" opacity="1.00" d=" M 906.01 657.99 C 908.60 657.99 911.20 658.02 913.81 658.04 C 919.79 674.95 925.57 691.93 931.62 708.82 C 937.76 691.98 943.53 675.01 949.41 658.08 C 951.99 658.02 954.57 657.99 957.17 657.99 C 949.51 678.37 941.91 698.77 934.31 719.16 C 932.23 724.42 930.13 730.12 925.44 733.65 C 921.73 736.31 916.92 736.24 912.57 736.02 C 912.55 734.01 912.54 732.02 912.55 730.03 C 915.99 730.12 919.92 730.21 922.50 727.50 C 925.37 724.42 926.84 720.25 927.81 716.24 C 920.63 696.79 913.28 677.40 906.01 657.99 Z" />
</g>
</svg>
