<?xml version="1.0" encoding="UTF-8" ?>
<!DOCTYPE svg PUBLIC "-//W3C//DTD SVG 1.1//EN" "http://www.w3.org/Graphics/SVG/1.1/DTD/svg11.dtd">
<svg width="1637pt" height="402pt" viewBox="0 0 1637 402" version="1.1" xmlns="http://www.w3.org/2000/svg">
<g id="#ffe5ffff">
<path fill="#ffe5ff" opacity="1.00" d=" M 107.25 20.24 C 118.99 16.14 132.41 17.02 143.49 22.66 C 160.49 31.08 169.53 50.92 168.17 69.37 C 165.21 63.37 163.63 56.66 159.65 51.18 C 158.25 49.12 156.51 47.30 154.94 45.36 C 148.13 38.54 139.62 33.36 130.20 31.12 C 121.93 29.16 113.62 26.06 107.25 20.24 Z" />
<path fill="#ffe5ff" opacity="1.00" d=" M 101.22 23.47 C 102.21 22.72 103.20 21.98 104.19 21.23 C 108.91 24.04 113.11 27.79 118.28 29.81 C 127.01 33.22 136.65 34.41 144.64 39.62 C 156.14 47.23 164.70 60.02 165.44 74.00 C 164.85 85.77 155.88 94.86 147.05 101.65 C 147.27 93.93 145.51 86.36 143.61 78.93 C 142.21 73.56 141.14 68.08 139.09 62.90 C 135.48 54.20 128.87 47.21 121.81 41.15 C 114.61 35.66 107.34 30.20 101.22 23.47 Z" />
<path fill="#ffe5ff" opacity="1.00" d=" M 93.79 42.54 C 91.32 35.75 93.56 28.09 98.06 22.68 C 107.56 36.02 123.99 42.37 132.99 56.17 C 136.76 61.66 138.71 68.08 141.06 74.23 C 136.30 67.52 129.97 62.00 122.68 58.19 C 115.16 54.70 106.87 53.22 99.45 49.52 C 96.47 48.37 94.97 45.30 93.79 42.54 Z" />
<path fill="#ffe5ff" opacity="1.00" d=" M 75.59 72.34 C 72.34 57.61 77.44 42.12 86.88 30.69 C 86.16 35.50 83.44 39.70 82.16 44.36 C 79.98 52.00 79.91 60.41 83.15 67.76 C 88.66 80.91 99.11 91.78 102.16 106.00 C 100.38 104.27 98.06 103.36 95.99 102.07 C 85.75 95.25 77.75 84.61 75.59 72.34 Z" />
<path fill="#ffe5ff" opacity="1.00" d=" M 89.18 33.52 C 89.66 32.49 90.19 31.49 90.76 30.50 C 90.49 37.75 91.80 45.04 94.75 51.67 C 92.73 51.88 90.73 52.18 88.72 52.44 C 90.74 52.79 92.75 53.22 94.66 53.97 C 93.13 58.29 91.88 62.88 88.95 66.52 C 91.38 70.29 94.47 73.64 96.30 77.79 C 96.99 79.34 98.42 80.35 99.67 81.43 C 100.24 84.31 101.09 87.12 102.26 89.81 C 105.84 91.88 110.00 90.70 113.74 89.78 C 120.89 87.78 127.01 83.44 133.35 79.74 C 130.76 82.49 127.66 84.68 124.84 87.17 C 128.54 93.58 130.24 100.86 130.50 108.22 C 121.86 110.26 112.66 109.27 104.23 106.69 C 102.65 91.10 90.60 79.83 85.04 65.79 C 81.00 55.12 84.06 43.25 89.18 33.52 Z" />
<path fill="#ffe5ff" opacity="1.00" d=" M 172.36 47.23 C 176.30 47.40 181.00 47.05 184.05 50.04 C 189.94 57.20 194.82 65.46 196.74 74.61 C 198.81 82.17 197.76 90.18 195.42 97.54 C 190.50 109.32 182.07 119.22 172.38 127.37 C 151.86 145.08 127.68 157.68 104.80 171.96 C 87.36 182.93 71.08 196.35 59.33 213.42 C 54.77 219.22 51.78 226.03 48.46 232.57 C 39.87 251.43 38.28 273.11 42.93 293.24 C 46.93 311.13 54.73 327.99 64.47 343.46 C 68.23 349.30 72.45 354.87 75.63 361.06 C 68.93 358.56 63.94 353.39 58.46 349.00 C 40.41 332.55 26.48 311.57 18.75 288.37 C 9.00 259.38 9.09 226.26 22.74 198.50 C 27.63 189.24 33.20 180.23 40.27 172.46 C 47.34 163.45 56.59 156.51 65.57 149.55 C 85.87 135.00 108.56 124.33 131.16 113.93 C 137.34 110.88 143.45 107.68 149.40 104.22 C 158.46 98.31 166.79 90.86 172.38 81.51 C 175.33 76.43 176.67 70.61 177.49 64.85 C 177.77 58.57 174.77 52.83 172.36 47.23 Z" />
<path fill="#ffe5ff" opacity="1.00" d=" M 209.25 100.08 C 209.31 95.37 208.86 90.68 208.62 85.98 C 216.17 96.98 223.02 110.41 219.62 124.11 C 217.20 131.91 212.55 139.05 206.48 144.52 C 199.47 152.05 190.87 157.80 182.57 163.79 C 171.51 171.72 160.43 179.67 150.03 188.47 C 133.43 201.75 120.10 219.76 114.53 240.44 C 114.67 225.04 112.98 208.72 120.22 194.49 C 120.99 192.41 121.95 190.41 123.16 188.55 C 129.00 178.37 137.34 169.82 146.50 162.57 C 153.89 156.67 162.08 151.91 169.87 146.59 C 179.31 140.33 189.20 134.41 196.97 126.05 C 203.97 119.28 209.30 110.04 209.25 100.08 Z" />
<path fill="#ffe5ff" opacity="1.00" d=" M 241.36 117.92 C 265.77 130.32 286.43 149.52 302.03 171.93 C 309.60 183.35 316.32 195.45 320.83 208.42 C 326.13 224.35 328.40 241.29 327.24 258.05 C 326.42 267.71 325.20 277.53 321.34 286.51 C 320.27 290.77 317.74 294.41 316.25 298.50 C 315.52 300.19 314.83 301.90 313.82 303.46 C 311.48 306.98 310.08 311.04 307.67 314.52 C 306.54 316.50 305.44 318.50 304.35 320.51 C 295.09 334.87 285.37 349.47 271.44 359.72 C 268.16 361.90 264.45 363.32 260.62 364.19 C 265.03 357.16 270.35 350.71 274.50 343.51 C 276.80 338.85 279.24 334.26 281.34 329.50 C 288.70 311.76 292.96 292.53 292.10 273.26 C 291.33 239.62 276.60 206.89 253.12 182.99 C 243.63 172.47 231.67 164.66 219.89 156.98 C 220.77 154.71 223.18 153.50 224.85 151.84 C 234.35 143.01 238.76 130.31 241.36 117.92 Z" />
<path fill="#ffe5ff" opacity="1.00" d=" M 457.22 164.14 C 462.50 162.28 469.55 163.59 472.39 168.81 C 474.22 173.33 474.09 179.84 469.58 182.75 C 465.64 185.73 459.75 186.01 455.57 183.40 C 448.17 179.60 449.17 166.64 457.22 164.14 Z" />
<path fill="#ffe5ff" opacity="1.00" d=" M 363.87 170.40 C 386.83 170.37 409.79 170.47 432.75 170.35 C 432.68 176.29 432.73 182.23 432.72 188.17 C 416.15 188.11 399.57 188.16 383.00 188.14 C 383.00 196.88 383.00 205.63 383.00 214.37 C 398.67 214.37 414.33 214.38 430.00 214.37 C 430.00 220.01 430.00 225.65 430.00 231.29 C 414.33 231.28 398.67 231.29 383.00 231.28 C 383.00 240.63 383.00 249.98 383.00 259.33 C 399.59 259.30 416.17 259.38 432.76 259.29 C 432.68 265.19 432.73 271.09 432.72 277.00 C 409.77 277.00 386.83 277.00 363.88 277.00 C 363.87 241.47 363.90 205.93 363.87 170.40 Z" />
<path fill="#ffe5ff" opacity="1.00" d=" M 1388.69 189.88 C 1391.45 189.85 1394.22 189.86 1397.00 189.86 C 1397.00 221.24 1397.00 252.62 1397.00 284.00 C 1394.22 284.00 1391.45 284.00 1388.69 284.00 C 1388.69 252.62 1388.68 221.25 1388.69 189.88 Z" />
<path fill="#ffe5ff" opacity="1.00" d=" M 817.53 191.80 C 828.03 191.83 838.53 191.79 849.03 191.82 C 856.14 191.88 863.68 193.12 869.41 197.65 C 878.61 204.96 879.38 220.66 870.65 228.64 C 867.77 231.76 863.59 232.87 859.85 234.54 C 865.96 235.49 872.24 237.69 876.34 242.56 C 882.33 249.52 882.75 260.05 879.06 268.18 C 876.06 274.65 869.58 278.69 862.90 280.50 C 857.05 281.92 850.99 282.11 845.00 282.06 C 835.84 282.04 826.69 282.08 817.53 282.04 C 817.53 251.96 817.52 221.88 817.53 191.80 M 826.15 199.45 C 826.15 210.14 826.15 220.84 826.15 231.53 C 833.64 231.55 841.13 231.74 848.62 231.48 C 854.53 231.16 861.06 229.80 865.03 225.00 C 868.88 220.26 869.07 213.18 866.39 207.83 C 863.11 202.09 856.23 199.50 849.89 199.44 C 841.97 199.36 834.06 199.50 826.15 199.45 M 826.15 239.00 C 826.15 250.80 826.15 262.59 826.15 274.39 C 834.08 274.44 842.01 274.56 849.95 274.45 C 856.02 274.29 862.53 273.35 867.36 269.35 C 873.72 263.81 874.37 253.25 869.55 246.53 C 864.83 240.82 857.08 239.23 850.03 239.04 C 842.07 238.90 834.11 239.05 826.15 239.00 Z" />
<path fill="#ffe5ff" opacity="1.00" d=" M 1258.84 192.82 C 1269.80 190.68 1282.28 192.48 1290.73 200.29 C 1295.31 204.26 1297.72 210.12 1298.62 216.01 C 1295.70 215.98 1292.79 215.95 1289.88 215.92 C 1288.85 208.92 1283.38 203.28 1276.75 201.23 C 1268.44 198.68 1258.65 199.24 1251.51 204.52 C 1245.92 208.62 1243.67 216.78 1246.98 222.97 C 1250.64 228.54 1257.44 230.47 1263.49 232.25 C 1273.89 235.10 1285.40 236.69 1293.70 244.23 C 1300.13 250.02 1301.07 259.74 1298.47 267.60 C 1296.09 275.45 1289.13 281.16 1281.51 283.63 C 1270.52 287.08 1258.05 286.59 1247.75 281.21 C 1240.04 277.09 1234.76 269.12 1233.88 260.43 C 1236.84 260.45 1239.81 260.49 1242.78 260.43 C 1243.42 268.04 1249.67 273.98 1256.70 276.17 C 1265.43 279.00 1275.73 278.83 1283.59 273.67 C 1288.90 270.40 1292.16 263.72 1290.74 257.53 C 1289.93 252.40 1285.61 248.75 1281.18 246.61 C 1273.83 243.06 1265.64 242.02 1257.90 239.68 C 1251.19 237.76 1244.18 234.86 1240.06 228.93 C 1235.61 222.33 1235.66 213.25 1239.25 206.29 C 1243.00 198.86 1250.90 194.41 1258.84 192.82 Z" />
<path fill="#ffe5ff" opacity="1.00" d=" M 510.66 204.70 C 516.37 195.25 528.77 193.05 538.86 195.10 C 545.39 196.29 551.07 200.63 554.16 206.47 C 558.32 199.98 565.39 195.70 573.03 194.81 C 581.99 193.71 592.41 194.95 598.74 202.07 C 604.21 208.33 604.98 217.06 604.95 225.02 C 605.00 242.35 605.01 259.67 605.00 277.00 C 598.83 277.00 592.66 277.00 586.49 277.00 C 586.55 260.03 586.58 243.05 586.55 226.08 C 586.57 221.71 585.38 216.92 581.72 214.18 C 575.55 209.49 565.87 211.11 561.20 217.18 C 558.69 220.17 557.67 224.15 557.77 228.01 C 557.83 244.34 557.88 260.67 557.90 277.00 C 551.84 277.00 545.78 277.00 539.73 277.00 C 539.79 259.64 539.76 242.27 539.76 224.91 C 540.53 215.55 529.77 208.76 521.42 212.39 C 515.23 214.81 511.11 221.35 511.13 227.94 C 511.09 244.29 511.13 260.64 511.12 277.00 C 504.97 277.00 498.82 277.00 492.68 277.00 C 492.68 249.95 492.67 222.91 492.69 195.86 C 498.64 195.81 504.60 195.85 510.56 195.83 C 510.64 198.78 510.76 201.74 510.66 204.70 Z" />
<path fill="#ffe5ff" opacity="1.00" d=" M 633.77 200.82 C 642.71 194.44 654.34 193.68 664.92 195.01 C 672.15 195.99 679.54 198.90 684.06 204.90 C 688.24 210.31 689.10 217.39 689.23 224.01 C 689.28 241.68 689.24 259.34 689.25 277.00 C 683.24 277.00 677.23 277.00 671.23 277.00 C 671.16 274.25 671.09 271.51 671.04 268.77 C 665.28 275.76 655.94 278.66 647.11 278.21 C 640.19 277.89 632.85 276.21 627.73 271.27 C 620.83 264.91 619.34 254.40 621.76 245.68 C 623.79 238.03 630.72 232.66 638.11 230.60 C 648.78 227.71 659.93 228.32 670.85 227.38 C 671.08 222.45 671.13 216.53 666.48 213.49 C 658.61 208.45 645.26 210.06 641.40 219.44 C 635.48 219.42 629.57 219.49 623.65 219.45 C 624.51 212.29 627.68 205.03 633.77 200.82 M 651.90 243.19 C 647.70 243.77 643.03 244.84 640.39 248.48 C 638.67 250.60 638.85 253.69 639.88 256.09 C 641.30 259.28 644.76 260.78 647.88 261.81 C 655.29 263.56 663.71 260.50 668.28 254.41 C 671.07 250.81 670.91 246.10 670.84 241.79 C 664.52 242.16 658.19 242.52 651.90 243.19 Z" />
<path fill="#ffe5ff" opacity="1.00" d=" M 727.89 204.40 C 734.27 196.39 745.08 193.73 754.90 194.57 C 762.21 194.87 769.78 197.60 774.46 203.45 C 779.65 209.69 780.64 218.15 780.78 225.98 C 780.84 242.99 780.89 259.99 780.92 277.00 C 774.72 277.00 768.51 277.00 762.31 277.00 C 762.36 261.01 762.46 245.02 762.41 229.03 C 762.40 223.33 760.75 216.83 755.56 213.69 C 748.38 209.75 738.60 211.14 732.92 217.09 C 729.48 220.81 728.17 226.00 728.24 230.97 C 728.29 246.31 728.27 261.65 728.27 277.00 C 722.12 277.00 715.98 277.00 709.84 277.00 C 709.84 249.95 709.83 222.89 709.84 195.84 C 715.80 195.82 721.76 195.87 727.73 195.81 C 727.78 198.67 727.86 201.53 727.89 204.40 Z" />
<path fill="#ffe5ff" opacity="1.00" d=" M 452.93 195.88 C 459.02 195.88 465.12 195.87 471.22 195.88 C 471.22 222.92 471.22 249.96 471.22 277.00 C 465.12 277.00 459.02 277.00 452.93 277.00 C 452.93 249.96 452.93 222.92 452.93 195.88 Z" />
<path fill="#ffe5ff" opacity="1.00" d=" M 1122.71 197.33 C 1125.46 197.35 1128.23 197.34 1131.00 197.34 C 1131.00 203.12 1130.99 208.90 1131.00 214.68 C 1136.33 214.67 1141.66 214.67 1147.00 214.67 C 1146.99 217.03 1146.99 219.40 1147.00 221.76 C 1141.66 221.76 1136.33 221.76 1131.00 221.76 C 1131.01 235.83 1130.98 249.90 1131.01 263.98 C 1130.99 267.19 1131.61 270.72 1134.10 272.99 C 1137.70 275.80 1142.53 275.02 1146.78 274.98 C 1146.76 277.32 1146.75 279.66 1146.76 282.01 C 1141.06 282.49 1135.00 282.73 1129.67 280.30 C 1124.86 277.79 1122.82 272.14 1122.85 266.98 C 1122.63 251.89 1122.78 236.80 1122.75 221.72 C 1119.11 221.78 1115.48 221.76 1111.86 221.76 C 1111.87 219.39 1111.88 217.03 1111.90 214.68 C 1115.51 214.67 1119.12 214.67 1122.74 214.67 C 1122.72 208.89 1122.78 203.11 1122.71 197.33 Z" />
<path fill="#ffe5ff" opacity="1.00" d=" M 904.50 222.52 C 915.69 209.95 938.68 210.64 948.48 224.56 C 953.93 232.06 954.58 241.65 954.91 250.59 C 937.97 250.49 921.04 250.56 904.10 250.56 C 904.41 257.46 906.31 264.66 911.14 269.81 C 917.70 276.46 928.43 277.27 936.75 273.75 C 940.59 272.21 943.57 269.04 945.33 265.34 C 948.17 265.31 951.02 265.25 953.88 265.17 C 951.29 272.58 945.48 278.69 937.98 281.17 C 928.04 284.40 916.25 283.71 907.69 277.29 C 899.77 271.08 896.27 260.74 895.88 250.97 C 895.36 240.94 897.59 230.15 904.50 222.52 M 911.47 226.41 C 906.68 230.80 904.76 237.42 904.32 243.71 C 918.24 243.69 932.17 243.72 946.09 243.70 C 946.14 235.93 942.97 227.66 936.02 223.56 C 928.44 219.15 917.76 220.13 911.47 226.41 Z" />
<path fill="#ffe5ff" opacity="1.00" d=" M 986.12 215.30 C 994.37 212.78 1003.74 212.92 1011.60 216.68 C 1018.38 220.04 1021.99 227.66 1021.96 235.01 C 1022.16 250.69 1021.99 266.37 1022.04 282.05 C 1019.35 282.05 1016.67 282.05 1014.00 282.05 C 1013.98 278.05 1014.03 274.06 1013.97 270.06 C 1010.96 274.38 1007.48 278.74 1002.45 280.75 C 993.89 284.46 983.21 283.89 975.60 278.28 C 967.16 271.97 966.04 258.00 973.59 250.59 C 978.10 246.55 984.13 244.64 990.07 244.05 C 997.97 243.21 1005.91 242.93 1013.83 242.30 C 1013.75 236.89 1014.48 230.75 1010.85 226.23 C 1007.17 221.43 1000.52 220.72 994.91 220.98 C 988.41 221.16 981.30 224.66 979.43 231.33 C 976.60 231.32 973.78 231.33 970.96 231.34 C 972.45 223.63 978.69 217.48 986.12 215.30 M 994.91 250.40 C 989.77 250.88 984.18 251.53 980.16 255.08 C 975.22 259.96 976.14 269.19 982.02 272.95 C 991.84 279.04 1006.68 275.28 1011.97 264.85 C 1014.43 259.98 1013.69 254.36 1013.79 249.10 C 1007.50 249.60 1001.20 249.97 994.91 250.40 Z" />
<path fill="#ffe5ff" opacity="1.00" d=" M 1042.21 214.58 C 1045.01 214.65 1047.83 214.65 1050.66 214.60 C 1050.61 229.05 1050.40 243.51 1050.65 257.97 C 1050.73 264.17 1053.33 270.80 1059.19 273.66 C 1067.93 277.60 1079.72 275.55 1085.44 267.45 C 1088.29 263.23 1089.05 258.00 1089.06 253.02 C 1088.98 240.22 1089.00 227.43 1089.00 214.64 C 1091.71 214.64 1094.43 214.63 1097.15 214.64 C 1097.24 237.09 1097.16 259.55 1097.19 282.00 C 1094.54 282.00 1091.90 282.00 1089.27 282.00 C 1089.25 277.75 1089.36 273.51 1089.15 269.27 C 1087.42 272.07 1085.97 275.19 1083.35 277.31 C 1077.85 282.16 1070.09 283.59 1062.96 282.93 C 1056.46 282.37 1049.84 279.24 1046.36 273.53 C 1043.13 268.67 1042.35 262.70 1042.33 256.99 C 1042.28 242.85 1042.23 228.72 1042.21 214.58 Z" />
<path fill="#ffe5ff" opacity="1.00" d=" M 1157.26 214.57 C 1160.26 214.67 1163.28 214.67 1166.31 214.66 C 1173.22 234.26 1179.86 253.97 1186.97 273.50 C 1194.24 254.02 1200.75 234.24 1207.72 214.65 C 1210.68 214.61 1213.64 214.60 1216.62 214.60 C 1208.32 236.89 1199.96 259.15 1191.69 281.46 C 1189.07 288.18 1186.87 295.39 1181.88 300.81 C 1177.51 305.32 1170.77 305.82 1164.86 305.25 C 1164.84 302.91 1164.84 300.57 1164.83 298.23 C 1169.75 298.90 1175.59 297.86 1178.18 293.11 C 1180.40 288.82 1183.92 283.65 1181.34 278.81 C 1173.24 257.43 1165.26 235.99 1157.26 214.57 Z" />
<path fill="#ffe5ff" opacity="1.00" d=" M 1330.41 217.61 C 1338.33 214.88 1347.26 214.90 1355.11 217.88 C 1362.42 220.73 1367.04 228.36 1367.11 236.09 C 1367.47 252.06 1367.19 268.06 1367.28 284.04 C 1364.59 284.05 1361.91 284.05 1359.24 284.06 C 1359.23 280.05 1359.30 276.05 1359.15 272.05 C 1356.08 276.60 1352.34 281.09 1347.02 283.01 C 1338.59 286.43 1328.20 285.77 1320.79 280.25 C 1312.01 273.72 1311.15 258.73 1319.82 251.76 C 1325.72 246.95 1333.58 245.98 1340.93 245.53 C 1346.95 245.08 1352.98 244.78 1359.00 244.27 C 1358.94 238.81 1359.63 232.59 1355.94 228.06 C 1352.15 223.38 1345.56 222.71 1339.96 222.99 C 1333.50 223.20 1326.50 226.73 1324.63 233.33 C 1321.81 233.32 1318.99 233.32 1316.18 233.39 C 1317.54 225.99 1323.38 219.97 1330.41 217.61 M 1329.41 254.56 C 1323.28 256.62 1320.60 264.18 1323.08 269.92 C 1324.94 274.51 1329.83 277.08 1334.57 277.56 C 1342.96 278.95 1352.21 275.23 1356.64 267.84 C 1359.69 262.81 1358.91 256.71 1358.99 251.10 C 1349.16 252.32 1338.88 251.27 1329.41 254.56 Z" />
<path fill="#ffe5ff" opacity="1.00" d=" M 1437.46 216.64 C 1446.29 214.53 1456.15 215.79 1463.69 221.04 C 1471.25 226.58 1475.20 235.89 1475.97 245.03 C 1476.88 254.85 1475.55 265.44 1469.61 273.60 C 1461.43 285.37 1444.25 287.79 1431.77 282.03 C 1423.12 278.08 1417.71 269.22 1416.09 260.09 C 1414.19 249.52 1415.00 237.91 1420.69 228.56 C 1424.29 222.44 1430.61 218.26 1437.46 216.64 M 1439.58 223.78 C 1431.75 225.64 1426.15 232.80 1424.66 240.49 C 1422.77 249.94 1423.02 260.61 1428.40 268.94 C 1435.35 279.65 1452.80 280.64 1461.15 271.10 C 1466.17 265.73 1467.52 258.06 1467.72 250.97 C 1467.71 243.51 1466.45 235.49 1461.43 229.66 C 1456.12 223.59 1447.18 221.80 1439.58 223.78 Z" />
<path fill="#ffe5ff" opacity="1.00" d=" M 1513.22 218.14 C 1520.53 214.70 1529.41 214.81 1536.82 217.90 C 1544.87 221.48 1548.80 230.50 1548.83 238.92 C 1549.09 253.96 1548.96 269.01 1549.00 284.05 C 1546.21 284.05 1543.43 284.05 1540.66 284.04 C 1540.72 270.01 1540.73 255.98 1540.69 241.94 C 1540.69 236.72 1539.57 231.06 1535.68 227.29 C 1526.19 219.08 1508.49 222.76 1504.05 234.88 C 1502.22 238.99 1502.26 243.55 1502.31 247.95 C 1502.39 259.98 1502.35 272.01 1502.36 284.04 C 1499.56 284.05 1496.78 284.05 1494.00 284.05 C 1494.00 261.60 1494.00 239.14 1494.00 216.69 C 1496.65 216.69 1499.32 216.69 1502.00 216.69 C 1502.01 220.91 1501.92 225.13 1502.08 229.35 C 1504.78 224.76 1508.19 220.32 1513.22 218.14 Z" />
<path fill="#ffe5ff" opacity="1.00" d=" M 72.10 252.21 C 77.94 237.57 88.74 223.98 103.78 218.20 C 99.87 223.89 95.36 229.25 92.46 235.57 C 83.65 256.40 82.85 280.15 88.47 301.92 C 93.12 319.83 104.82 336.79 122.17 344.30 C 108.53 317.07 109.06 282.82 124.63 256.48 C 131.19 246.53 139.96 237.68 150.85 232.58 C 155.39 230.96 159.90 229.02 164.73 228.44 C 172.13 227.50 179.62 228.92 186.51 231.62 C 199.67 237.91 210.15 249.20 216.63 262.15 C 223.31 274.23 225.91 288.16 226.19 301.86 C 226.16 316.99 222.84 332.27 215.47 345.57 C 209.48 355.74 201.52 365.20 190.83 370.61 C 184.40 374.12 177.03 375.31 169.83 376.04 C 149.57 378.49 128.27 375.29 110.56 364.83 C 98.04 357.70 87.56 347.29 79.72 335.25 C 64.03 310.98 60.58 278.88 72.10 252.21 M 147.60 281.76 C 142.44 284.54 138.99 289.41 136.22 294.42 C 129.04 309.01 131.73 327.87 143.03 339.63 C 145.78 341.62 148.00 344.44 151.42 345.35 C 160.23 348.37 171.20 345.04 176.31 337.11 C 188.54 322.10 187.36 297.32 172.53 284.44 C 166.04 278.18 155.21 276.65 147.60 281.76 Z" />
<path fill="#ffe5ff" opacity="1.00" d=" M 240.61 267.40 C 242.85 263.15 247.19 259.87 252.05 259.49 C 257.13 258.95 261.59 262.66 264.07 266.78 C 267.83 273.10 267.54 281.08 264.43 287.60 C 264.17 287.90 263.63 288.52 263.37 288.83 C 261.22 292.49 257.18 294.85 253.00 295.27 C 248.61 295.08 244.20 292.99 241.71 289.31 C 237.41 282.94 236.99 274.16 240.61 267.40 Z" />
<path fill="#ffe5ff" opacity="1.00" d=" M 234.61 323.97 C 236.29 318.49 240.06 313.04 246.02 311.82 C 248.55 310.95 251.11 311.91 253.56 312.59 C 264.85 318.63 265.76 336.14 256.27 344.24 C 253.86 346.62 250.21 346.39 247.08 346.49 C 240.76 346.54 236.44 340.78 234.85 335.23 C 233.56 331.59 234.20 327.70 234.61 323.97 Z" />
</g>
</svg>
